<?xml version="1.0" standalone="no"?>
<!DOCTYPE svg PUBLIC "-//W3C//DTD SVG 20010904//EN"
 "http://www.w3.org/TR/2001/REC-SVG-20010904/DTD/svg10.dtd">
<svg version="1.0" xmlns="http://www.w3.org/2000/svg"
 width="225.000000pt" height="225.000000pt" viewBox="0 0 225.000000 225.000000"
 preserveAspectRatio="xMidYMid meet">

<g transform="translate(0.000000,225.000000) scale(0.100000,-0.100000)"
fill="#000000" stroke="none">
<path d="M896 1923 c-18 -38 -43 -76 -54 -87 -21 -18 -21 -18 -27 7 -4 14 -5
49 -3 77 2 38 -1 54 -11 58 -19 6 -12 -148 8 -172 13 -15 16 -15 38 6 42 39
114 178 93 178 -5 0 -25 -30 -44 -67z"/>
<path d="M985 1969 c-10 -15 3 -25 16 -12 7 7 7 13 1 17 -6 3 -14 1 -17 -5z"/>
<path d="M1020 1915 c0 -31 22 -115 30 -115 10 0 90 109 90 122 0 21 -20 4
-44 -37 -31 -52 -46 -57 -46 -16 0 35 -9 61 -21 61 -5 0 -9 -7 -9 -15z"/>
<path d="M1296 1887 c-4 -23 -9 -52 -13 -64 -3 -13 -1 -23 5 -23 6 0 14 16 18
35 7 38 27 60 55 60 29 0 17 20 -11 21 -14 0 -31 3 -37 7 -6 4 -13 -9 -17 -36z"/>
<path d="M1436 1909 c-55 -43 -58 -109 -5 -109 50 0 96 70 72 109 -15 24 -36
24 -67 0z m54 -27 c0 -29 -30 -63 -53 -60 -29 4 -31 20 -7 51 25 31 60 36 60
9z"/>
<path d="M1176 1890 c-29 -26 -33 -35 -27 -58 5 -19 15 -28 34 -30 29 -4 67
13 67 29 0 6 -7 6 -19 -1 -29 -15 -61 -12 -61 5 0 8 9 15 19 15 10 0 29 8 42
19 20 16 21 21 10 35 -18 22 -25 21 -65 -14z m42 -2 c-3 -7 -13 -15 -24 -17
-16 -3 -17 -1 -5 13 16 19 34 21 29 4z"/>
<path d="M952 1859 c-11 -48 -10 -70 4 -57 3 3 11 29 19 57 10 40 11 51 1 51
-7 0 -18 -23 -24 -51z"/>
<path d="M550 1579 c-15 -60 -19 -94 -13 -100 7 -7 18 21 32 83 24 105 24 108
12 108 -5 0 -19 -41 -31 -91z"/>
<path d="M912 1574 c-13 -53 -20 -99 -16 -103 4 -3 9 0 12 7 6 19 62 82 72 82
5 0 4 -15 -1 -32 -11 -41 -11 -58 0 -58 8 0 31 74 31 99 0 16 -32 13 -58 -5
-24 -16 -27 -9 -13 28 18 51 22 78 9 78 -8 0 -22 -37 -36 -96z"/>
<path d="M1550 1628 c-6 -24 -15 -59 -21 -78 -11 -42 -12 -80 -1 -80 4 0 15
35 25 78 9 42 20 87 23 100 4 13 2 22 -4 22 -6 0 -16 -19 -22 -42z"/>
<path d="M411 1630 c-45 -120 -50 -160 -21 -160 28 0 100 30 100 42 0 6 -8 7
-17 3 -46 -19 -74 -27 -78 -23 -2 2 -2 13 1 24 4 14 23 27 55 38 27 10 49 23
49 28 0 6 -8 7 -17 3 -10 -4 -31 -11 -46 -15 -26 -8 -27 -7 -21 13 9 33 20 40
77 59 l52 16 -62 -1 c-57 -2 -63 -4 -72 -27z"/>
<path d="M802 1640 c-20 -13 -41 -38 -53 -66 -19 -42 -19 -47 -5 -70 9 -13 23
-24 32 -24 24 0 84 28 84 39 0 14 -1 14 -39 -5 -41 -20 -61 -12 -61 24 0 20
12 40 37 65 38 39 57 46 67 25 3 -7 5 -4 3 7 -3 27 -26 29 -65 5z"/>
<path d="M1075 1641 c-6 -11 9 -23 19 -14 9 9 7 23 -3 23 -6 0 -12 -4 -16 -9z"/>
<path d="M1620 1635 c0 -9 6 -12 15 -9 8 4 12 10 9 15 -8 14 -24 10 -24 -6z"/>
<path d="M1700 1631 c0 -12 -9 -30 -20 -41 -10 -10 -15 -22 -10 -25 5 -3 7
-18 4 -33 -11 -56 60 -70 84 -17 14 30 2 34 -16 5 -13 -22 -52 -27 -52 -7 1
38 13 55 46 62 19 3 34 10 34 15 0 5 -14 7 -31 3 -28 -5 -30 -4 -24 20 4 14 2
28 -4 31 -7 4 -11 -1 -11 -13z"/>
<path d="M1130 1567 c-11 -26 -20 -58 -17 -70 3 -21 4 -21 11 -2 22 57 28 66
51 77 35 16 39 7 21 -46 -19 -54 -19 -56 -7 -56 11 0 41 79 41 109 0 21 -3 23
-34 18 -22 -4 -36 -1 -39 6 -3 7 -15 -10 -27 -36z"/>
<path d="M1296 1589 c-26 -20 -47 -73 -38 -96 5 -16 54 -17 70 -1 21 21 13 27
-15 13 -33 -17 -46 -10 -37 18 9 32 34 57 56 57 21 0 24 16 4 23 -8 3 -26 -3
-40 -14z"/>
<path d="M1407 1576 c-47 -44 -44 -106 5 -106 25 0 78 53 78 78 0 56 -39 69
-83 28z m61 -17 c5 -25 -41 -74 -61 -66 -23 9 -21 29 4 61 23 29 52 31 57 5z"/>
<path d="M1829 1573 c-33 -36 -41 -60 -29 -84 15 -26 43 -24 80 7 26 22 31 33
28 63 -3 30 -7 36 -28 39 -17 2 -34 -6 -51 -25z m61 -18 c0 -28 -32 -65 -55
-65 -22 0 -19 46 5 70 28 28 50 26 50 -5z"/>
<path d="M1051 1546 c-13 -54 -14 -76 -2 -76 4 0 11 15 15 33 3 17 9 44 12 60
11 46 -13 30 -25 -17z"/>
<path d="M1605 1578 c-7 -24 -25 -93 -25 -100 0 -5 4 -8 10 -8 5 0 14 19 20
43 6 23 13 50 16 60 6 19 -14 24 -21 5z"/>
<path d="M814 1138 c-36 -29 -128 -126 -132 -142 -2 -7 -1 -8 5 0 4 5 26 23
48 40 22 16 55 43 73 59 19 17 40 34 48 38 8 4 14 12 14 17 0 17 -26 11 -56
-12z"/>
<path d="M726 945 c-8 -8 -19 -15 -24 -15 -18 0 -63 -28 -60 -36 8 -26 66 -58
126 -71 69 -14 113 -10 147 13 23 16 20 17 -22 5 -18 -5 -47 -6 -65 -1 -18 4
-46 11 -63 15 l-30 7 28 14 c24 13 38 28 20 22 -5 -2 -8 0 -8 3 0 4 -9 16 -19
28 -17 19 -17 21 -3 21 10 0 17 -7 17 -15 0 -16 5 -18 68 -17 30 0 42 -4 42
-14 0 -18 21 -18 46 1 16 12 17 16 5 24 -19 12 -113 23 -133 16 -9 -4 -19 -2
-23 4 -9 15 -31 14 -49 -4z"/>
<path d="M605 890 c-3 -5 -1 -10 4 -10 6 0 11 5 11 10 0 6 -2 10 -4 10 -3 0
-8 -4 -11 -10z"/>
<path d="M610 850 c-13 -8 -12 -10 3 -10 9 0 17 5 17 10 0 12 -1 12 -20 0z"/>
<path d="M716 741 c-10 -16 37 -20 63 -6 26 14 26 14 -16 15 -23 0 -44 -4 -47
-9z"/>
<path d="M1049 663 c6 -10 20 -29 32 -43 l21 -25 -6 35 c-4 22 -3 30 3 21 10
-15 71 -25 71 -11 0 5 7 7 15 4 8 -4 15 -1 15 5 0 6 -17 11 -39 11 -22 0 -43
5 -46 10 -3 6 -22 10 -41 10 -30 0 -33 -2 -25 -17z"/>
<path d="M1270 609 c0 -5 5 -7 10 -4 6 3 10 1 10 -4 0 -6 5 -11 11 -11 8 0 8
5 -1 15 -14 17 -30 20 -30 4z"/>
<path d="M1195 588 c-22 -10 -50 -17 -63 -14 -12 2 -25 -1 -28 -5 -3 -5 13 -9
34 -9 38 0 69 -19 55 -34 -7 -6 15 -27 51 -47 13 -8 11 0 -10 27 -16 22 -36
44 -44 51 -13 11 -13 12 1 13 9 0 22 7 29 15 17 21 25 11 22 -29 -3 -28 3 -38
35 -65 54 -45 64 -38 16 12 -40 41 -52 77 -27 77 7 0 15 -6 17 -12 4 -9 6 -9
6 -1 1 6 -11 18 -27 25 -24 13 -32 12 -67 -4z"/>
<path d="M1322 568 c7 -7 21 -19 31 -27 15 -12 17 -12 11 3 -3 9 -15 21 -25
26 -25 14 -33 12 -17 -2z"/>
<path d="M1307 543 c5 -13 3 -15 -13 -9 -14 5 -11 -1 10 -23 17 -17 36 -31 43
-31 7 0 13 -4 13 -9 0 -14 -28 -33 -39 -27 -5 4 -12 2 -16 -3 -7 -12 -83 -3
-99 10 -6 6 -26 21 -45 34 -19 14 -28 25 -20 25 8 0 30 -11 49 -25 45 -33 48
-32 13 8 -18 21 -37 33 -53 33 -14 0 -34 4 -45 8 -16 6 -15 4 2 -6 21 -13 22
-15 8 -36 -31 -44 -2 -64 283 -190 61 -28 112 -49 112 -46 0 11 -36 44 -50 45
-10 0 -11 2 -2 6 6 2 12 11 12 19 0 20 14 17 35 -6 10 -11 21 -18 23 -15 3 3
19 -7 36 -22 17 -15 6 -2 -23 29 -53 56 -56 57 -75 41 -12 -10 -16 -12 -10 -4
9 10 3 21 -27 51 -37 36 -51 59 -29 45 7 -4 9 3 6 20 -5 28 -26 59 -34 50 -3
-2 1 -12 9 -21 12 -14 11 -16 -6 -12 -11 2 -19 10 -17 17 3 15 -14 38 -39 52
-15 8 -17 6 -12 -8z m33 -28 c7 -8 8 -15 2 -15 -5 0 -15 7 -22 15 -7 8 -8 15
-2 15 5 0 15 -7 22 -15z m60 -39 c0 -2 -8 -10 -17 -17 -16 -13 -17 -12 -4 4
13 16 21 21 21 13z m-207 -33 c-7 -2 -19 -2 -25 0 -7 3 -2 5 12 5 14 0 19 -2
13 -5z m187 -18 c7 -9 8 -15 2 -15 -5 0 -12 7 -16 15 -3 8 -4 15 -2 15 2 0 9
-7 16 -15z m36 -82 c-6 -6 -36 9 -36 18 0 5 9 4 20 -3 10 -7 18 -14 16 -15z"/>
<path d="M2068 508 c14 -18 52 -31 52 -18 0 4 -8 10 -17 14 -10 3 -25 9 -33
13 -13 5 -13 4 -2 -9z"/>
<path d="M2225 421 c-3 -5 -1 -12 5 -16 5 -3 10 1 10 9 0 18 -6 21 -15 7z"/>
<path d="M1623 228 c1 -10 -16 -13 -63 -12 l-65 2 37 -32 c20 -18 54 -41 75
-52 21 -10 46 -28 56 -39 17 -20 17 -20 10 0 -8 25 -34 67 -48 78 -5 5 7 6 28
3 20 -2 37 -4 37 -2 0 1 -10 15 -22 32 -24 30 -50 43 -45 22z"/>
<path d="M1290 214 l-25 -14 28 0 c17 0 27 5 27 15 0 8 -1 15 -2 14 -2 -1 -14
-7 -28 -15z"/>
<path d="M1660 147 c0 -9 4 -17 9 -17 5 0 11 -9 14 -20 3 -11 13 -20 23 -20
15 0 13 6 -12 32 -16 18 -30 35 -31 37 -2 2 -3 -3 -3 -12z"/>
<path d="M1700 155 c0 -3 7 -17 16 -30 13 -20 19 -22 34 -12 14 8 16 15 8 24
-5 7 -14 11 -18 8 -5 -3 -11 -1 -15 5 -6 10 -25 14 -25 5z"/>
<path d="M1708 56 c16 -18 16 -19 0 -13 -10 4 -18 2 -18 -2 0 -14 28 -21 33
-8 3 9 8 9 18 0 16 -15 39 -17 39 -3 0 6 -6 10 -14 10 -8 0 -17 8 -20 18 -3
10 -16 17 -30 17 -23 0 -24 -1 -8 -19z"/>
<path d="M1843 55 c0 -8 4 -15 9 -15 4 0 8 7 8 15 0 8 -4 15 -8 15 -5 0 -9 -7
-9 -15z"/>
<path d="M914 36 c23 -18 36 -20 36 -6 0 6 -4 10 -9 10 -5 0 -18 3 -28 6 -16
5 -16 4 1 -10z"/>
</g>
</svg>
